<svg id="Layer_1" data-name="Layer 1" xmlns="http://www.w3.org/2000/svg" viewBox="0 0 432.45 406.36"><defs><style>.cls-1{fill:#175a2e;fill-rule:evenodd;}.cls-2{fill:#fff;}</style></defs><title>logos</title><path class="cls-1" d="M230.62,406.36s-6.69-24.11-6.69-33.37,8.5-13.13,17.78-10.82,98.07,20.09,98.07,20.09-7-19.31-11.59-33.2c-4.62-14.69,1.55-17,4.62-20.1,3.88-3.09,99.63-85.71,99.63-85.71l-16.22-7.71c-9.26-4.63-7.72-12.37-6.18-17.78s17-60.23,17-60.23-40.91,9.27-51,10.81c-7.72.78-10-3.07-12.34-7.72-2.33-5.4-12.35-30.1-12.35-30.1s-51,56.36-51.75,57.14c-10,9.26-19.31,2.32-17.76-8.5,1.54-9.27,26.25-121.24,26.25-121.24s-27,16.22-36.3,21.62c-8.48,5.41-13.11,3.87-17.76-4.63S216.21,0,216.21,0h0S183,66.41,178.37,74.9c-5.38,8.5-10,10-18.53,4.63-9.26-5.4-36.3-21.62-36.3-21.62s24.72,112,26.26,121.24c1.55,10.82-7.71,17.76-17,8.5-1.54-.78-51.74-57.14-51.74-57.14S71,155.21,68,160.61c-2.33,4.65-4.64,8.5-12.36,7.72-10-1.54-52.52-10.81-52.52-10.81s17,54.82,18.54,60.23,3.09,13.14-6.19,17.78L0,243.24S95.75,325.87,98.84,329s9.28,5.4,4.63,20.1c-4.63,13.89-11.59,33.2-11.59,33.2S180.7,364.48,190,362.17c10-2.32,17.76,1.55,17.76,10.82s-6.27,33.37-6.27,33.37h29.17Z"/><path class="cls-2" d="M280.6,223.69a9.49,9.49,0,0,0-9.27,7.49H248.38a33.79,33.79,0,0,0-7.88-19.82l12.65-11.79a9.54,9.54,0,1,0-2.72-2.93l-12.67,11.81a33.82,33.82,0,0,0-19.25-9V178.32a33.93,33.93,0,0,0,21.36-56.25L253.68,105a8.51,8.51,0,1,0-3.11-2.51L237,119.23a33.92,33.92,0,0,0-45.86.76l-13.7-17.45a8.52,8.52,0,1,0-3.15,2.47l14.07,17.92a33.94,33.94,0,0,0,22.11,55.39v21.15a33.82,33.82,0,0,0-19.29,9l-12.33-11.76a9.45,9.45,0,1,0-2.75,2.9l12.34,11.77a33.79,33.79,0,0,0-7.84,19.77H161.13a9.49,9.49,0,1,0,0,4h19.49A33.77,33.77,0,0,0,188,254.33L176.3,265a9.51,9.51,0,1,0,2.69,3l11.64-10.6a33.84,33.84,0,0,0,19.86,9.57v19a33.95,33.95,0,1,0,8,0v-19a33.83,33.83,0,0,0,19.82-9.53l12,10.66a9.53,9.53,0,1,0,2.66-3l-12-10.65a33.78,33.78,0,0,0,7.38-19.2h22.94A9.49,9.49,0,1,0,280.6,223.69Z"/></svg>