<?xml version="1.0" encoding="UTF-8" standalone="no"?>
<!DOCTYPE svg PUBLIC "-//W3C//DTD SVG 1.1//EN" "http://www.w3.org/Graphics/SVG/1.1/DTD/svg11.dtd">
<!-- Generated by Microsoft Visio, SVG Export GHSTS_logo_withoutfont.svg Page-5 -->
<svg xmlns="http://www.w3.org/2000/svg" xmlns:xlink="http://www.w3.org/1999/xlink" xmlns:ev="http://www.w3.org/2001/xml-events"
		xmlns:v="http://schemas.microsoft.com/visio/2003/SVGExtensions/" width="16.0354in" height="11.6929in"
		viewBox="0 0 1154.55 841.89" xml:space="preserve" color-interpolation-filters="sRGB" class="st8">
	<v:documentProperties v:langID="1033" v:metric="true" v:viewMarkup="false">
		<v:userDefs>
			<v:ud v:nameU="msvNoAutoConnect" v:val="VT0(1):26"/>
		</v:userDefs>
	</v:documentProperties>

	<style type="text/css">
	<![CDATA[
		.st1 {fill:#1581c6;stroke:none;stroke-linecap:butt;stroke-width:0.75}
		.st2 {fill:#92c02b;stroke:none;stroke-linecap:butt;stroke-width:3.75}
		.st3 {visibility:visible}
		.st4 {fill:none;filter:url(#filter_2.6666667461395)}
		.st5 {fill:none;filter:url(#filter_2.6666667461395);stroke:#7f7f7f;stroke-linecap:butt}
		.st6 {fill:none}
		.st7 {stroke:#ffffff;stroke-linecap:butt;stroke-width:8}
		.st8 {fill:none;fill-rule:evenodd;font-size:12px;overflow:visible;stroke-linecap:square;stroke-miterlimit:3}
	]]>
	</style>

	<defs id="Filters">
		<filter id="filter_2.6666667461395">
			<feGaussianBlur stdDeviation="2.6666667461395"/>
		</filter>
	</defs>
	<g v:mID="9" v:index="5" v:groupContext="foregroundPage">
		<title>Page-5</title>
		<v:pageProperties v:drawingScale="0.0393701" v:pageScale="0.0393701" v:drawingUnits="24" v:shadowOffsetX="9"
				v:shadowOffsetY="-9"/>
		<g id="group1-1" transform="translate(329.213,-197.733) rotate(-25)" v:mID="1" v:groupContext="group">
			<title>Sheet.1</title>
			<g id="group2-2" v:mID="2" v:groupContext="group">
				<title>Layer 1</title>
				<g id="group3-3" v:mID="3" v:groupContext="group">
					<title>g2462</title>
					<g id="shape4-4" v:mID="4" v:groupContext="shape">
						<title>path2530</title>
						<path d="M205.46 748.2 C205.46 799.92 159.67 841.89 103.25 841.89 C46.83 841.89 0 799.91 1.04 748.2 C2.43
									 678.84 58.62 650.59 103.25 570.87 C150.66 647.97 205.46 696.48 205.46 748.2 Z" class="st1"/>
					</g>
					<g id="shape5-6" v:mID="5" v:groupContext="shape" transform="translate(4.64966,-3.94673)">
						<title>path3520</title>
						<path d="M197.28 751.93 C197.28 801.59 153.32 841.89 99.14 841.89 C44.97 841.89 0 801.58 1 751.93 C2.33 685.33
									 56.29 658.2 99.14 581.66 C144.66 655.69 197.28 702.27 197.28 751.93 Z" class="st1"/>
					</g>
					<g id="shape6-8" v:mID="6" v:groupContext="shape" transform="translate(5.28858,-6.94125)">
						<title>path3542</title>
						<path d="M194.94 753 C194.94 802.07 151.49 841.89 97.96 841.89 C44.43 841.89 0 802.06 0.99 753 C2.31 687.19
									 55.62 660.39 97.96 584.75 C127.04 828.75 194.94 703.93 194.94 753 Z" class="st1"/>
					</g>
					<g id="shape7-10" v:mID="7" v:groupContext="shape" transform="translate(0,-0.763103)">
						<title>path3556</title>
						<path d="M205.46 748.2 C205.46 799.92 159.67 841.89 103.25 841.89 C46.83 841.89 0 799.91 1.04 748.2 C2.43
									 678.84 58.62 650.59 103.25 570.87 C150.66 647.97 205.46 696.48 205.46 748.2 Z" class="st1"/>
					</g>
					<g id="shape8-12" v:mID="8" v:groupContext="shape" transform="translate(32.2952,-159.192)">
						<title>path3541</title>
						<path d="M33.93 815.44 A25.0463 15.0256 180 1 1 10.16 841.89 A25.0463 15.0256 180 1 1 33.93 815.44 Z"
								class="st1"/>
					</g>
				</g>
			</g>
		</g>
		<g id="group10-14" transform="translate(442.953,-247.719)" v:mID="10" v:groupContext="group">
			<title>green leaf</title>
			<g id="group11-15" transform="translate(69.3127,-3.33392)" v:mID="11" v:groupContext="group">
				<title>Layer 1</title>
				<g id="shape12-16" v:mID="12" v:groupContext="shape" transform="translate(627.715,1255.19) rotate(156.259)">
					<title>svg_1</title>
					<path d="M287.11 653.64 C61.45 558.07 95.7 728.11 0 765.35 C150.6 731.01 243.79 841.89 287.11 653.64 Z"
							class="st2"/>
				</g>
			</g>
		</g>
		<g id="group15-18" transform="translate(498.831,-293.036) rotate(-10)" v:mID="15" v:groupContext="group">
			<title>Sheet.15</title>
			<g id="shape16-19" v:mID="16" v:groupContext="shape" transform="translate(13.5726,5.29443)">
				<title>Sheet.16</title>
				<g id="shadow16-20" v:groupContext="shadow" v:shadowOffsetX="2.12132" v:shadowOffsetY="2.12132" v:shadowType="1"
						v:shadowAngle="135" transform="matrix(1,0,0,1,2.45746,-1.72073)" class="st3">
					<path d="M91.38 658.19 A91.851 91.851 -180 1 0 92.32 658.19 L91.38 658.19 ZM91.85 658.19 L91.85 841.89 L91.85
								 658.19 ZM183.7 750.04 L0 750.04 L183.7 750.04 ZM20.73 693.52 A122.468 122.468 -180 0 0 162.98 693.52
								 L20.73 693.52 ZM162.98 806.56 A122.468 122.468 -180 0 0 20.73 806.56 L162.98 806.56 ZM84.79 660.54
								 A117.758 117.758 -180 0 0 84.79 840.48 L84.79 660.54 ZM98.92 840.48 A117.758 117.758 -180 0 0 98.92
								 660.54 L98.92 840.48 Z" class="st4"/>
					<path d="M91.38 658.19 A91.851 91.851 -180 1 0 92.32 658.19 L91.38 658.19M91.85 658.19 L91.85 841.89M183.7 750.04
								 L0 750.04M20.73 693.52 A122.468 122.468 -180 0 0 162.98 693.52M162.98 806.56 A122.468 122.468 -180
								 0 0 20.73 806.56M84.79 660.54 A117.758 117.758 -180 0 0 84.79 840.48M98.92 840.48 A117.758 117.758
								 -180 0 0 98.92 660.54" class="st5"/>
				</g>
				<path d="M91.38 658.19 A91.851 91.851 -180 1 0 92.32 658.19 L91.38 658.19 ZM91.85 658.19 L91.85 841.89 L91.85 658.19
							 ZM183.7 750.04 L0 750.04 L183.7 750.04 ZM20.73 693.52 A122.468 122.468 -180 0 0 162.98 693.52 L20.73
							 693.52 ZM162.98 806.56 A122.468 122.468 -180 0 0 20.73 806.56 L162.98 806.56 ZM84.79 660.54 A117.758
							 117.758 -180 0 0 84.79 840.48 L84.79 660.54 ZM98.92 840.48 A117.758 117.758 -180 0 0 98.92 660.54 L98.92
							 840.48 Z" class="st6"/>
				<path d="M91.38 658.19 A91.851 91.851 -180 1 0 92.32 658.19 L91.38 658.19M91.85 658.19 L91.85 841.89M183.7 750.04
							 L0 750.04M20.73 693.52 A122.468 122.468 -180 0 0 162.98 693.52M162.98 806.56 A122.468 122.468 -180 0
							 0 20.73 806.56M84.79 660.54 A117.758 117.758 -180 0 0 84.79 840.48M98.92 840.48 A117.758 117.758 -180
							 0 0 98.92 660.54" class="st7"/>
			</g>
		</g>
	</g>
</svg>
